<svg xmlns="http://www.w3.org/2000/svg" viewBox="0 0 850.12 850.12"><defs><style>.cls-1{fill:#eae09e;opacity:0.56;}.cls-2{fill:#f1cc57;}.cls-3{fill:#486b95;}.cls-4{fill:#543420;}.cls-5{fill:#efb933;}.cls-6{fill:#f0bd3a;}.cls-7{fill:#b23323;}.cls-8{fill:#ebc13b;}.cls-9{fill:#f0bf7f;}.cls-10{fill:#3b3827;}</style></defs><g id="BG"><path class="cls-1" d="M946.52,488.91c0,169.51-99.23,315.85-242.78,384.09q-11.55,5.5-23.48,10.3a420.39,420.39,0,0,1-68.47,21.05q-20.35,4.41-41.39,6.83A429.83,429.83,0,0,1,521.46,914q-20.16,0-39.85-1.85A422.31,422.31,0,0,1,333,870C192.81,800.57,96.4,656,96.4,488.91c0-234.76,190.3-425.06,425.06-425.06S946.52,254.15,946.52,488.91Z" transform="translate(-96.4 -63.85)"/></g><g id="Bojji"><polygon class="cls-2" points="654.84 198.57 597.73 257.27 591.76 263.4 502.09 148.02 520.81 136.85 570.23 107.36 570.23 156.81 626.27 148.02 613.79 194.17 654.84 198.57"/><path class="cls-3" d="M611.79,904.35q-20.35,4.41-41.39,6.83A429.83,429.83,0,0,1,521.46,914q-20.16,0-39.85-1.85A422.31,422.31,0,0,1,333,870c-.63-10.64,7.22-20.24,7.22-20.24-76.68-56.1,90-260.89,91-262.19h0l169.41-21.32,6.5,198,3.26,99.31.56,17Z" transform="translate(-96.4 -63.85)"/><path class="cls-4" d="M703.74,873q-11.55,5.5-23.48,10.3a420.39,420.39,0,0,1-68.47,21.05q-20.35,4.41-41.39,6.83A429.83,429.83,0,0,1,521.46,914q-20.16,0-39.85-1.85l-10.19-6.06L490.75,875h0L560.5,762.84h0l18.71-30.06h0l28,31.49,86,96.84Z" transform="translate(-96.4 -63.85)"/><path class="cls-5" d="M450.19,890.34s10.64,15.72,21.23,15.72,86.41-55.18,115-143.09l-7.19-30.22Z" transform="translate(-96.4 -63.85)"/><path class="cls-6" d="M478.71,791.54c30.18-52.13,84-70.4,96.7-67,15.93,4.24-20.59,86.86-66.48,134.07C462.78,906.06,406.18,916.82,478.71,791.54Z" transform="translate(-96.4 -63.85)"/><path class="cls-7" d="M518.27,794.84s-40.61-55.28-80.22-62.09S454.25,809.12,500,819C500,819,513.88,820.11,518.27,794.84Z" transform="translate(-96.4 -63.85)"/><circle class="cls-8" cx="323.52" cy="668.9" r="22.53"/><path class="cls-3" d="M693.18,861.11c-2.92,8.37-7.42,15.06-14,19.14l-.49.31h-93.4S566,875.4,561,817.42c-.77-9-1.2-19.26-1.16-31,0-7.29.24-15.14.65-23.6,0,0,0,0,0,0q.19-3.8.44-7.76.87-13.91,2.5-29.9c0-.22,0-.44.07-.66,0,0-3.48-122,14.11-135.16l-148.36,5.49,2-7.24h0l3.48-12.53s8.35-5,22-11.71c2-1,4.08-2,6.27-3,3.8-1.78,7.89-3.62,12.25-5.48,30.66-13.09,74.06-27,113.34-22.66,0,0,15.39,6.59,18.69,20.87,0,0,65.93,2.2,71.42,168.14C678.71,721.22,709,815.82,693.18,861.11Z" transform="translate(-96.4 -63.85)"/><path class="cls-9" d="M680.26,883.3a420.39,420.39,0,0,1-68.47,21.05q-20.35,4.41-41.39,6.83a208.3,208.3,0,0,1,14.91-30.62,59,59,0,0,1,25.14-17c15.38-5.48,37.6-6.42,66.07,10.38a54.14,54.14,0,0,1,2.68,6.29C679.54,881.17,679.89,882.18,680.26,883.3Z" transform="translate(-96.4 -63.85)"/><path class="cls-10" d="M707.94,397.42c-9.25,23-34.72,27.09-34.72,27.09s4.46,24.31-7.07,51.46a95.24,95.24,0,0,1-16,25.47c-19.33,22.1-40,24.23-52.64,22.77a45,45,0,0,1-12.19-3L312.78,382.73C276.52,350.83,298,308,298,308c2.74-45.57,18.71-59.12,27.95-63.14a18.37,18.37,0,0,1,6.62-1.7l.93-1.81c55.34-105.53,171.6-75.11,171.6-75.11,61.54,0,69.23,18.68,69.23,18.68a194.1,194.1,0,0,1,42.89,15.75c71.23,36.67,76.65,104.54,76.92,120.42,0,2.19,0,3.39,0,3.39C713.12,359.53,713.94,382.47,707.94,397.42Z" transform="translate(-96.4 -63.85)"/><path class="cls-9" d="M707.94,397.42c-1,25.41-17,70.81-41.79,78.55l-.62.19c-30.77,8.79-30.77,1.65-30.77,1.65s-16.16,25.94-37.26,46.4c-2.88,2.79-5.86,5.49-8.9,8,0,0-76.8,9.51-113.34,22.66A73.63,73.63,0,0,0,463,560.35c-3.25,1.92-5.44,3.9-6.27,5.92v-9.89s-119.82,30.56-154.95-86.81c-9.21-30.77,0-53.85,9.89-76.92.94-2.19,1.19-5.57,1.1-9.92-.44-23.49-10.51-75.31,27.19-121.6l.28-.35s29.95,13.37,61.87-3.55c12-6.33,24.2-16.93,35.23-34.07,1.32-2,2.61-4.16,3.88-6.39.41-.7.82-1.42,1.22-2.15,0,0,50.55,34.07,109.89,27.48,0,0,20.88,48.35,71.43,86.81l6.59,50.55s37.17-78.44,75.83,4.39C707.61,386.89,708.17,391.64,707.94,397.42Z" transform="translate(-96.4 -63.85)"/><path class="cls-10" d="M442.45,216.82c-1.72,2.19-3.42,4.31-5.1,6.34-12.91,15.64-24.64,26.63-35.23,34.07-28.8,20.23-49.23,14.22-62.15,3.9a63.12,63.12,0,0,1-14-16.24,52.63,52.63,0,0,1-3.27-6.09,66.89,66.89,0,0,0,10.82,2.58c36.4,5.36,52.92-26.76,52.92-26.76l54.82,2.15Z" transform="translate(-96.4 -63.85)"/></g></svg>