<svg xmlns="http://www.w3.org/2000/svg" xmlns:xlink="http://www.w3.org/1999/xlink" viewBox="0 0 991.41 991.41"><defs><style>.cls-1{fill:#252627;}.cls-2{fill:url(#linear-gradient);}.cls-3{fill:url(#New_Gradient_Swatch_1);}.cls-4{fill:url(#New_Gradient_Swatch_1-2);}.cls-5{fill:url(#New_Gradient_Swatch_1-3);}</style><linearGradient id="linear-gradient" x1="495.71" y1="248.64" x2="495.71" y2="750.93" gradientUnits="userSpaceOnUse"><stop offset="0" stop-color="#fffaff"/><stop offset="1" stop-color="#252627"/></linearGradient><linearGradient id="New_Gradient_Swatch_1" x1="711.5" y1="755.23" x2="711.5" y2="425.34" gradientUnits="userSpaceOnUse"><stop offset="0" stop-color="#6564db"/><stop offset="1" stop-color="#5bc0eb"/></linearGradient><linearGradient id="New_Gradient_Swatch_1-2" x1="288.5" y1="755.23" x2="288.5" y2="425.34" xlink:href="#New_Gradient_Swatch_1"/><linearGradient id="New_Gradient_Swatch_1-3" x1="500" y1="425.34" x2="500" y2="244.77" xlink:href="#New_Gradient_Swatch_1"/></defs><g id="Layer_6" data-name="Layer 6"><circle class="cls-1" cx="495.7" cy="495.7" r="495.7"/><polygon class="cls-2" points="805.92 704.93 690.87 744.99 495.7 750.93 300.52 744.99 185.5 704.93 495.7 248.64 805.92 704.93"/></g><g id="Logo_1" data-name="Logo 1"><path class="cls-3" d="M900,582.3a173.53,173.53,0,0,1-173.5,172.93H538.85c-8.77,0-15.88-5-15.88-11.16V611.16c66.24,3.08,87.61,32.33,99.08,54.33,12.83,24.57-11.48,81.41-9.28,80.7,49.57-15.74,84.37-42.29,84.37-119.47,0-27.92-12.89-66.39-34-108.8-14.79-29.7-33.61-61.33-54.88-92.58h134C828.56,425.34,900.32,496,900,582.3Z" transform="translate(-4.3 -4.3)"/><path class="cls-4" d="M477,611.16V744.07c0,6.16-7.11,11.16-15.88,11.16H273.46A173.5,173.5,0,0,1,100,581.73,156.41,156.41,0,0,1,256.35,425.34H391.74c-21.27,31.25-40.09,62.88-54.88,92.58-21.11,42.41-34,80.88-34,108.8,0,77.18,34.8,103.73,84.37,119.47,2.2.71-22.11-56.13-9.28-80.7C389.42,643.49,410.79,614.24,477,611.16Z" transform="translate(-4.3 -4.3)"/><path class="cls-5" d="M723,397a151.63,151.63,0,0,1-2.67,28.38h-112c-30-44.12-64.87-87.53-100.08-123.8a11.39,11.39,0,0,0-16.36,0c-35.21,36.27-70.07,79.68-100.08,123.8h-112A152.21,152.21,0,0,1,429.25,244.77h141.5A152.19,152.19,0,0,1,723,397Z" transform="translate(-4.3 -4.3)"/></g></svg>